<svg xmlns="http://www.w3.org/2000/svg" viewBox="0 0 1200 630" role="img" aria-labelledby="title desc">
  <title id="title">SDMatch thumbnail</title>
  <desc id="desc">Two sketched distributions connected by projected one-dimensional summaries.</desc>
  <defs>
    <linearGradient id="bg" x1="0" x2="1" y1="0" y2="1">
      <stop offset="0" stop-color="#f7f2e8"/>
      <stop offset="0.55" stop-color="#eef5f1"/>
      <stop offset="1" stop-color="#f7ebe4"/>
    </linearGradient>
    <filter id="soft" x="-20%" y="-20%" width="140%" height="140%">
      <feGaussianBlur stdDeviation="10"/>
    </filter>
  </defs>
  <rect width="1200" height="630" fill="url(#bg)"/>
  <path d="M80 470 C210 220 330 560 460 260 C530 100 610 110 665 260 C780 590 955 160 1120 390" fill="none" stroke="#202020" stroke-opacity="0.12" stroke-width="28" filter="url(#soft)"/>
  <g fill="none" stroke-linecap="round">
    <path d="M165 415 C260 240 350 515 450 330 C520 205 585 215 630 320" stroke="#126a5a" stroke-width="15"/>
    <path d="M570 315 C675 135 785 490 900 290 C975 160 1040 205 1090 310" stroke="#d35d2f" stroke-width="15"/>
  </g>
  <g opacity="0.82">
    <line x1="210" y1="145" x2="990" y2="520" stroke="#262626" stroke-width="5"/>
    <line x1="250" y1="500" x2="920" y2="110" stroke="#262626" stroke-width="3" stroke-opacity="0.35"/>
  </g>
  <g fill="#126a5a" opacity="0.78">
    <circle cx="170" cy="410" r="8"/>
    <circle cx="225" cy="335" r="7"/>
    <circle cx="295" cy="330" r="8"/>
    <circle cx="350" cy="428" r="7"/>
    <circle cx="435" cy="335" r="8"/>
    <circle cx="545" cy="230" r="7"/>
    <circle cx="625" cy="318" r="8"/>
  </g>
  <g fill="#d35d2f" opacity="0.78">
    <circle cx="592" cy="308" r="8"/>
    <circle cx="660" cy="210" r="7"/>
    <circle cx="735" cy="245" r="8"/>
    <circle cx="800" cy="396" r="7"/>
    <circle cx="900" cy="290" r="8"/>
    <circle cx="990" cy="205" r="7"/>
    <circle cx="1080" cy="305" r="8"/>
  </g>
  <text x="78" y="112" fill="#1b1b1b" font-family="Georgia, 'Times New Roman', serif" font-size="88" font-weight="700">SDMatch</text>
  <text x="84" y="168" fill="#414141" font-family="'Roboto Mono', monospace" font-size="28">Sketched Distribution Matching</text>
</svg>
