<svg xmlns="http://www.w3.org/2000/svg" viewBox="0 0 780 372" font-family="system-ui,sans-serif">
<rect width="780" height="372" fill="#fcfcfb"/>
<text x="56" y="20" fill="#0b0b0b" font-size="12.5" font-weight="600">Score vs published Gumbel AlphaZero baselines (x = total env steps, search included)</text>
<line x1="56" y1="282.0" x2="660" y2="282.0" stroke="#e1e0d9"/>
<text x="48" y="285.0" fill="#898781" font-size="10.5" text-anchor="end">0</text>
<line x1="56" y1="226.9" x2="660" y2="226.9" stroke="#e1e0d9"/>
<text x="48" y="229.9" fill="#898781" font-size="10.5" text-anchor="end">0.2</text>
<line x1="56" y1="171.8" x2="660" y2="171.8" stroke="#e1e0d9"/>
<text x="48" y="174.8" fill="#898781" font-size="10.5" text-anchor="end">0.4</text>
<line x1="56" y1="144.2" x2="660" y2="144.2" stroke="#e1e0d9"/>
<text x="48" y="147.2" fill="#898781" font-size="10.5" text-anchor="end">0.5</text>
<line x1="56" y1="116.7" x2="660" y2="116.7" stroke="#e1e0d9"/>
<text x="48" y="119.7" fill="#898781" font-size="10.5" text-anchor="end">0.6</text>
<line x1="56" y1="61.6" x2="660" y2="61.6" stroke="#e1e0d9"/>
<text x="48" y="64.6" fill="#898781" font-size="10.5" text-anchor="end">0.8</text>
<line x1="56" y1="144.2" x2="660" y2="144.2" stroke="#898781" stroke-dasharray="4 4"/>
<text x="62" y="138.2" fill="#898781" font-size="10.5">0.50 = parity</text>
<line x1="478.3" y1="34" x2="478.3" y2="282" stroke="#898781" stroke-dasharray="4 4"/>
<text x="474.3" y="46" fill="#898781" font-size="10.5" text-anchor="end">their Othello/Hex cost (865M)</text>
<line x1="620.3" y1="34" x2="620.3" y2="282" stroke="#898781" stroke-dasharray="4 4"/>
<text x="616.3" y="252" fill="#898781" font-size="10.5" text-anchor="end">their Go cost (1.73B)</text>
<text x="91.8" y="300" fill="#898781" font-size="10.5" text-anchor="middle">131M</text>
<text x="233.7" y="300" fill="#898781" font-size="10.5" text-anchor="middle">262M</text>
<text x="375.7" y="300" fill="#898781" font-size="10.5" text-anchor="middle">524M</text>
<text x="478.3" y="300" fill="#898781" font-size="10.5" text-anchor="middle">865M</text>
<text x="517.8" y="300" fill="#898781" font-size="10.5" text-anchor="middle">1.05B</text>
<text x="620.3" y="300" fill="#898781" font-size="10.5" text-anchor="middle">1.73B</text>
<text x="390" y="322" fill="#898781" font-size="10.5" text-anchor="middle">total env steps executed during training (log) — ours = frames (no search); theirs = frames × 33 (32 sims + move)</text>
<polyline fill="none" stroke="#2a78d6" stroke-width="2" points="91.9,189.1 233.9,166.3 316.9,121.4 375.8,113.1 421.5,92.1 458.8,91.3 490.4,112.3 517.8,91.6"/>
<circle cx="517.8" cy="91.6" r="3.5" fill="#2a78d6"/>
<polyline fill="none" stroke="#eb6834" stroke-width="2" points="91.9,156.1 233.9,91.6 316.9,72.0 375.8,63.5 421.5,62.4 458.8,56.0 490.4,58.5 517.8,55.5"/>
<circle cx="517.8" cy="55.5" r="3.5" fill="#eb6834"/>
<polyline fill="none" stroke="#1baf7a" stroke-width="2" points="91.9,191.6 233.9,126.0 316.9,99.6 375.8,72.6 421.5,66.8 458.8,62.4 490.4,58.5 517.8,64.0"/>
<circle cx="517.8" cy="64.0" r="3.5" fill="#1baf7a"/>
<text x="525.8" y="49.5" fill="#eb6834" font-size="11.5" font-weight="600">Hex 0.835*</text>
<text x="525.8" y="76.0" fill="#1baf7a" font-size="11.5" font-weight="600">Go 9×9 0.817*</text>
<text x="525.8" y="99.6" fill="#2a78d6" font-size="11.5" font-weight="600">Othello 0.671*</text>
<text x="56" y="348" fill="#898781" font-size="10">* final checkpoints verified over 10,240 games (5 seeds); curve points are 512-game checkpoint evals</text>
</svg>